<?xml version="1.0" encoding="UTF-8" standalone="no"?>
<svg
   width="48"
   height="48"
   viewBox="0 0 24 24"
   version="1.1"
   id="svg1"
   sodipodi:docname="2dtag.svg"
   inkscape:version="1.4.3 (0d15f75, 2025-12-25)"
   xmlns:inkscape="http://www.inkscape.org/namespaces/inkscape"
   xmlns:sodipodi="http://sodipodi.sourceforge.net/DTD/sodipodi-0.dtd"
   xmlns="http://www.w3.org/2000/svg"
   xmlns:svg="http://www.w3.org/2000/svg">
  <defs
     id="defs1" />
  <sodipodi:namedview
     id="namedview1"
     pagecolor="#ffffff"
     bordercolor="#000000"
     borderopacity="0.25"
     inkscape:showpageshadow="2"
     inkscape:pageopacity="0.0"
     inkscape:pagecheckerboard="0"
     inkscape:deskcolor="#d1d1d1"
     inkscape:zoom="16.8125"
     inkscape:cx="23.97026"
     inkscape:cy="28.758364"
     inkscape:window-width="1920"
     inkscape:window-height="1009"
     inkscape:window-x="-8"
     inkscape:window-y="-8"
     inkscape:window-maximized="1"
     inkscape:current-layer="svg1" />
  <path
     fill="#000000"
     d="M13 7h3c1.66 0 3 1.34 3 3v4c0 1.66-1.34 3-3 3h-3V7m3 8c.55 0 1-.45 1-1v-4c0-.55-.45-1-1-1h-1v6h1M5 7h4a2 2 0 0 1 2 2v2c0 1.11-.89 2-2 2H7v2h4v2H5v-4c0-1.1.9-2 2-2h2V9H5V7Z"
     id="path1"
     style="fill:#8da5f3;fill-opacity:1" />
</svg>
