<?xml version="1.0" encoding="UTF-8" standalone="no"?>
<svg
   width="48"
   height="48"
   viewBox="0 0 24 24"
   version="1.1"
   id="svg1"
   sodipodi:docname="3dtag.svg"
   inkscape:version="1.4.3 (0d15f75, 2025-12-25)"
   xmlns:inkscape="http://www.inkscape.org/namespaces/inkscape"
   xmlns:sodipodi="http://sodipodi.sourceforge.net/DTD/sodipodi-0.dtd"
   xmlns="http://www.w3.org/2000/svg"
   xmlns:svg="http://www.w3.org/2000/svg">
  <defs
     id="defs1" />
  <sodipodi:namedview
     id="namedview1"
     pagecolor="#ffffff"
     bordercolor="#000000"
     borderopacity="0.25"
     inkscape:showpageshadow="2"
     inkscape:pageopacity="0.0"
     inkscape:pagecheckerboard="0"
     inkscape:deskcolor="#d1d1d1"
     inkscape:zoom="16.8125"
     inkscape:cx="23.97026"
     inkscape:cy="24"
     inkscape:window-width="1920"
     inkscape:window-height="1009"
     inkscape:window-x="-8"
     inkscape:window-y="-8"
     inkscape:window-maximized="1"
     inkscape:current-layer="svg1" />
  <path
     fill="#000000"
     d="M5 7h4a2 2 0 0 1 2 2v6a2 2 0 0 1-2 2H5v-2h4v-2H6v-2h3V9H5V7m8 0h3a3 3 0 0 1 3 3v4a3 3 0 0 1-3 3h-3V7m3 8a1 1 0 0 0 1-1v-4a1 1 0 0 0-1-1h-1v6h1Z"
     id="path1"
     style="fill:#fc7f7f;fill-opacity:1" />
</svg>
