<?xml version="1.0" encoding="UTF-8" standalone="no"?>
<svg
   height="24px"
   viewBox="0 -960 960 960"
   width="24px"
   fill="#e3e3e3"
   version="1.1"
   id="svg1"
   sodipodi:docname="bounce.svg"
   inkscape:version="1.4.3 (0d15f75, 2025-12-25)"
   xmlns:inkscape="http://www.inkscape.org/namespaces/inkscape"
   xmlns:sodipodi="http://sodipodi.sourceforge.net/DTD/sodipodi-0.dtd"
   xmlns="http://www.w3.org/2000/svg"
   xmlns:svg="http://www.w3.org/2000/svg">
  <defs
     id="defs1" />
  <sodipodi:namedview
     id="namedview1"
     pagecolor="#ffffff"
     bordercolor="#000000"
     borderopacity="0.25"
     inkscape:showpageshadow="2"
     inkscape:pageopacity="0.0"
     inkscape:pagecheckerboard="0"
     inkscape:deskcolor="#d1d1d1"
     inkscape:zoom="16.8125"
     inkscape:cx="6.5427509"
     inkscape:cy="8.4163569"
     inkscape:window-width="1920"
     inkscape:window-height="1009"
     inkscape:window-x="-8"
     inkscape:window-y="-8"
     inkscape:window-maximized="1"
     inkscape:current-layer="svg1" />
  <ellipse
     style="fill:#e4e4e4;fill-opacity:1;stroke-width:12.0945;stroke-linecap:round;stroke-linejoin:round"
     id="path6"
     cx="483.67157"
     cy="-141.54358"
     rx="387.77838"
     ry="100.09898" />
  <path
     d="m 432.62525,-351.02661 12,-43.63484 q 3,-10.12951 12.5,-16.75265 9.5,-6.62314 23.5,-8.18153 l 124,-7.79193 q 13,-1.55839 24,3.89596 11,5.45436 16,14.80467 l 16,29.60935 q 39,-17.92144 70,-43.24523 31,-25.32378 52,-56.49152 l -12,-4.67516 q -11,-6.23355 -16,-15.19427 -5,-8.96073 -2,-19.09024 l 28,-95.0616 q 3,-9.35033 12.5,-15.58387 9.5,-6.23355 21.5,-7.79194 -5,-19.47983 -12.5,-37.79088 -7.5,-18.31104 -19.5,-35.4533 -9,3.89597 -19.5,3.50637 -10.5,-0.38959 -18.5,-5.06475 l -106,-49.86838 q -11,-5.45435 -16,-14.80467 -5,-9.35033 -2,-19.47984 l 8,-26.49257 q -31,-10.90872 -63.5,-16.36307 -32.5,-5.45435 -66.5,-5.45435 -14,0 -29,1.16878 -15,1.1688 -29,3.50638 l 30,52.98515 q 5,9.35032 2.5,19.47984 -2.5,10.12951 -12.5,16.36306 l -94,63.89386 q -10,7.01274 -23.5,7.79193 -13.5,0.77919 -24.5,-4.67516 l -92,-43.63483 q -23,29.60935 -35.5,63.50427 -12.5,33.89491 -12.5,68.95862 0,12.46709 4,40.51805 l 88,-6.23355 q 14,-1.55839 25.5,3.50638 11.5,5.06475 16.5,15.19426 l 48,88.82805 q 5,9.35033 2.5,19.47984 -2.5,10.12951 -12.5,16.36306 l -38,24.93419 q 27,15.58387 57.5,25.71338 30.5,10.12952 62.5,14.80468 z m 72,-134.02127 q -13,1.55839 -24,-3.89596 -11,-5.45436 -16,-14.80468 l -54,-96.61999 q -5,-9.35031 -1.5,-19.47983 3.5,-10.12952 13.5,-16.36307 l 102,-67.01063 q 9,-7.01274 22,-7.79193 13,-0.7792 24,4.67516 l 112,51.42677 q 11,5.45435 17,14.80467 6,9.35032 3,19.47983 l -32,101.29515 q -3,10.12951 -12,16.75266 -9,6.62314 -22,8.18153 z m -6,202.59029 q -83,0 -156,-24.54459 -73,-24.5446 -127,-66.62104 -54,-42.07644 -85.5,-98.95756 -31.500001,-56.88113 -31.500001,-121.55417 0,-64.67306 31.500001,-121.55418 31.5,-56.88112 85.5,-98.95757 54,-42.07644 127,-66.62103 73,-24.5446 156,-24.5446 83,0 156,24.5446 73,24.54459 127,66.62103 54,42.07645 85.5,98.95757 31.5,56.88112 31.5,121.55418 0,64.67304 -31.5,121.55417 -31.5,56.88112 -85.5,98.95756 -54,42.07644 -127,66.62104 -73,24.54459 -156,24.54459 z"
     id="path1"
     style="fill:#ffffff;fill-opacity:1;stroke-width:0.882719" />
</svg>
