<?xml version="1.0" encoding="UTF-8" standalone="no"?>
<svg
   width="16"
   height="16"
   fill="currentColor"
   class="bi bi-lightning-charge-fill"
   viewBox="0 0 16 16"
   version="1.1"
   id="svg1"
   sodipodi:docname="trigger.svg"
   inkscape:version="1.4.3 (0d15f75, 2025-12-25)"
   xmlns:inkscape="http://www.inkscape.org/namespaces/inkscape"
   xmlns:sodipodi="http://sodipodi.sourceforge.net/DTD/sodipodi-0.dtd"
   xmlns:xlink="http://www.w3.org/1999/xlink"
   xmlns="http://www.w3.org/2000/svg"
   xmlns:svg="http://www.w3.org/2000/svg">
  <defs
     id="defs1">
    <linearGradient
       id="linearGradient7"
       inkscape:collect="always">
      <stop
         style="stop-color:#f6eb80;stop-opacity:1;"
         offset="0"
         id="stop8" />
      <stop
         style="stop-color:#f6a580;stop-opacity:1;"
         offset="1"
         id="stop9" />
    </linearGradient>
    <linearGradient
       inkscape:collect="always"
       xlink:href="#linearGradient7"
       id="linearGradient9"
       x1="4.9641619"
       y1="15.848488"
       x2="11.044728"
       y2="-0.021545516"
       gradientUnits="userSpaceOnUse" />
  </defs>
  <sodipodi:namedview
     id="namedview1"
     pagecolor="#ffffff"
     bordercolor="#000000"
     borderopacity="0.25"
     inkscape:showpageshadow="2"
     inkscape:pageopacity="0.0"
     inkscape:pagecheckerboard="0"
     inkscape:deskcolor="#d1d1d1"
     inkscape:zoom="17.832349"
     inkscape:cx="-5.2713189"
     inkscape:cy="8.3836402"
     inkscape:window-width="1920"
     inkscape:window-height="1009"
     inkscape:window-x="-8"
     inkscape:window-y="-8"
     inkscape:window-maximized="1"
     inkscape:current-layer="svg1" />
  <path
     d="M11.251.068a.5.5 0 0 1 .227.58L9.677 6.5H13a.5.5 0 0 1 .364.843l-8 8.5a.5.5 0 0 1-.842-.49L6.323 9.5H3a.5.5 0 0 1-.364-.843l8-8.5a.5.5 0 0 1 .615-.09z"
     id="path1" />
  <path
     style="fill:url(#linearGradient9);stroke-width:0.00847791;stroke-linecap:round;stroke-linejoin:round"
     d="M 4.8889992,15.969774 C 4.6955019,15.923015 4.5142678,15.70115 4.5142678,15.511032 c 0,-0.04121 0.4043294,-1.390456 0.8985098,-2.998323 0.4941803,-1.607867 0.9051,-2.9454754 0.9131548,-2.9724629 C 6.339766,9.4938967 6.246098,9.4911438 4.6353228,9.4905623 3.0373931,9.4899852 2.9230094,9.4866887 2.8179125,9.4381833 2.6881589,9.378298 2.5959388,9.2861593 2.5534104,9.1739147 2.5077865,9.0534998 2.5178588,8.8698622 2.5752255,8.7761853 2.6035571,8.729921 4.4454101,6.7599069 6.6682322,4.3983759 10.884548,-0.08104744 10.790383,0.01401947 11.011015,0.01401947 c 0.124055,0 0.3148,0.11046716 0.391889,0.22695672 0.05154,0.0778779 0.07149,0.14536974 0.07151,0.24194378 2.5e-5,0.0965757 -0.251158,0.94832613 -0.900475,3.05347753 -0.49528,1.6057478 -0.9005089,2.9337416 -0.9005089,2.9510974 0,0.023038 0.4619539,0.031557 1.7112749,0.031557 1.886114,0 1.82096,-0.00583 1.981909,0.1774769 0.153542,0.1748743 0.156812,0.4016613 0.0086,0.5972931 C 13.217034,7.5026287 5.3125362,15.86863 5.2292466,15.91539 5.1197889,15.97684 4.9984717,15.99623 4.8889852,15.96977 Z"
     id="path2" />
</svg>
